<mxfile host="app.diagrams.net" agent="Mozilla/5.0 (Windows NT 10.0; Win64; x64) AppleWebKit/537.36 (KHTML, like Gecko) Chrome/131.0.0.0 Safari/537.36 Edg/131.0.0.0" version="25.0.3" pages="2">
  <diagram name="Page-1" id="9UCdiGRCNJrYpAwujLkd">
    <mxGraphModel dx="872" dy="437" grid="1" gridSize="10" guides="1" tooltips="1" connect="1" arrows="1" fold="1" page="1" pageScale="1" pageWidth="850" pageHeight="1100" math="0" shadow="0">
      <root>
        <mxCell id="0" />
        <mxCell id="1" parent="0" />
        <mxCell id="whWWv7yojBycynxsl9pJ-4" value="&lt;b&gt;192.168.178.13&lt;/b&gt;" style="text;html=1;align=center;verticalAlign=middle;whiteSpace=wrap;rounded=0;" parent="1" vertex="1">
          <mxGeometry x="190" y="190" width="90" height="30" as="geometry" />
        </mxCell>
        <mxCell id="whWWv7yojBycynxsl9pJ-9" value="&lt;b&gt;192.168.178.12&lt;/b&gt;" style="text;html=1;align=center;verticalAlign=middle;whiteSpace=wrap;rounded=0;" parent="1" vertex="1">
          <mxGeometry x="680" y="310" width="90" height="30" as="geometry" />
        </mxCell>
        <mxCell id="whWWv7yojBycynxsl9pJ-10" value="&lt;b&gt;192.168.178.14&lt;/b&gt;" style="text;html=1;align=center;verticalAlign=middle;whiteSpace=wrap;rounded=0;" parent="1" vertex="1">
          <mxGeometry x="390" y="180" width="90" height="30" as="geometry" />
        </mxCell>
        <mxCell id="whWWv7yojBycynxsl9pJ-15" value="DC FAN" style="verticalLabelPosition=bottom;sketch=0;html=1;fillColor=#A153A0;verticalAlign=top;align=center;pointerEvents=1;shape=mxgraph.cisco_safe.design.actuator;" parent="1" vertex="1">
          <mxGeometry x="740" y="116.62999999999998" width="50" height="45" as="geometry" />
        </mxCell>
        <mxCell id="whWWv7yojBycynxsl9pJ-16" value="" style="sketch=0;outlineConnect=0;fontColor=#232F3E;gradientColor=none;fillColor=#7AA116;strokeColor=none;dashed=0;verticalLabelPosition=bottom;verticalAlign=top;align=center;html=1;fontSize=12;fontStyle=0;aspect=fixed;pointerEvents=1;shape=mxgraph.aws4.actuator;" parent="1" vertex="1">
          <mxGeometry x="150" y="82" width="72" height="78" as="geometry" />
        </mxCell>
        <mxCell id="whWWv7yojBycynxsl9pJ-17" value="v2x controller (Linux PC )" style="text;html=1;align=center;verticalAlign=middle;whiteSpace=wrap;rounded=0;" parent="1" vertex="1">
          <mxGeometry x="100" y="60" width="190" height="30" as="geometry" />
        </mxCell>
        <mxCell id="whWWv7yojBycynxsl9pJ-18" value="" style="sketch=0;points=[[0,0,0],[0.25,0,0],[0.5,0,0],[0.75,0,0],[1,0,0],[0,1,0],[0.25,1,0],[0.5,1,0],[0.75,1,0],[1,1,0],[0,0.25,0],[0,0.5,0],[0,0.75,0],[1,0.25,0],[1,0.5,0],[1,0.75,0]];outlineConnect=0;fontColor=#232F3E;fillColor=#ED7100;strokeColor=#ffffff;dashed=0;verticalLabelPosition=bottom;verticalAlign=top;align=center;html=1;fontSize=12;fontStyle=0;aspect=fixed;shape=mxgraph.aws4.resourceIcon;resIcon=mxgraph.aws4.ec2;" parent="1" vertex="1">
          <mxGeometry x="350" y="91" width="69" height="69" as="geometry" />
        </mxCell>
        <mxCell id="whWWv7yojBycynxsl9pJ-19" value="HPC (Raspberry Pi 4)&amp;nbsp;" style="text;html=1;align=center;verticalAlign=middle;whiteSpace=wrap;rounded=0;" parent="1" vertex="1">
          <mxGeometry x="310" y="60" width="150" height="30" as="geometry" />
        </mxCell>
        <mxCell id="whWWv7yojBycynxsl9pJ-20" value="" style="shape=mxgraph.rack.cisco.cisco_catalyst_4928_10_gigabit_ethernet_switch;html=1;labelPosition=right;align=left;spacingLeft=15;dashed=0;shadow=0;fillColor=#ffffff;" parent="1" vertex="1">
          <mxGeometry x="135" y="240" width="635" height="50" as="geometry" />
        </mxCell>
        <mxCell id="whWWv7yojBycynxsl9pJ-22" value="Ethernet switch (TP Link&amp;nbsp; SG 105E)" style="text;html=1;align=center;verticalAlign=middle;whiteSpace=wrap;rounded=0;" parent="1" vertex="1">
          <mxGeometry x="320" y="290" width="230" height="30" as="geometry" />
        </mxCell>
        <mxCell id="whWWv7yojBycynxsl9pJ-23" value="" style="sketch=0;outlineConnect=0;fontColor=#232F3E;gradientColor=none;fillColor=#7AA116;strokeColor=none;dashed=0;verticalLabelPosition=bottom;verticalAlign=top;align=center;html=1;fontSize=12;fontStyle=0;aspect=fixed;pointerEvents=1;shape=mxgraph.aws4.iot_thing_vibration_sensor;" parent="1" vertex="1">
          <mxGeometry x="612" y="350" width="78" height="78" as="geometry" />
        </mxCell>
        <mxCell id="whWWv7yojBycynxsl9pJ-24" value="Zonal (Windows PC)" style="text;html=1;align=center;verticalAlign=middle;whiteSpace=wrap;rounded=0;" parent="1" vertex="1">
          <mxGeometry x="590" y="440" width="150" height="30" as="geometry" />
        </mxCell>
        <mxCell id="whWWv7yojBycynxsl9pJ-25" value="" style="outlineConnect=0;dashed=0;verticalLabelPosition=bottom;verticalAlign=top;align=center;html=1;shape=mxgraph.aws3.ec2_compute_container_2;fillColor=#F58534;gradientColor=none;" parent="1" vertex="1">
          <mxGeometry x="550" y="110" width="90" height="58.25" as="geometry" />
        </mxCell>
        <mxCell id="whWWv7yojBycynxsl9pJ-26" value="Subsystem(Raspberry Pi Pico)" style="text;html=1;align=center;verticalAlign=middle;whiteSpace=wrap;rounded=0;" parent="1" vertex="1">
          <mxGeometry x="499.5" y="52" width="230" height="30" as="geometry" />
        </mxCell>
        <mxCell id="whWWv7yojBycynxsl9pJ-29" value="" style="shape=flexArrow;endArrow=classic;startArrow=classic;html=1;rounded=0;exitX=0.087;exitY=0.06;exitDx=0;exitDy=0;exitPerimeter=0;fillColor=#a20025;strokeColor=#6F0000;" parent="1" source="whWWv7yojBycynxsl9pJ-20" edge="1">
          <mxGeometry width="100" height="100" relative="1" as="geometry">
            <mxPoint x="90" y="260" as="sourcePoint" />
            <mxPoint x="190" y="160" as="targetPoint" />
          </mxGeometry>
        </mxCell>
        <mxCell id="whWWv7yojBycynxsl9pJ-30" value="" style="shape=flexArrow;endArrow=classic;startArrow=classic;html=1;rounded=0;exitX=0.087;exitY=0.06;exitDx=0;exitDy=0;exitPerimeter=0;fillColor=#a20025;strokeColor=#6F0000;" parent="1" edge="1">
          <mxGeometry width="100" height="100" relative="1" as="geometry">
            <mxPoint x="382" y="240" as="sourcePoint" />
            <mxPoint x="382" y="157" as="targetPoint" />
          </mxGeometry>
        </mxCell>
        <mxCell id="whWWv7yojBycynxsl9pJ-31" value="" style="shape=flexArrow;endArrow=classic;startArrow=classic;html=1;rounded=0;fillColor=#a20025;strokeColor=#6F0000;" parent="1" edge="1">
          <mxGeometry width="100" height="100" relative="1" as="geometry">
            <mxPoint x="651" y="350" as="sourcePoint" />
            <mxPoint x="650.5" y="290" as="targetPoint" />
          </mxGeometry>
        </mxCell>
        <mxCell id="whWWv7yojBycynxsl9pJ-33" value="" style="endArrow=classic;startArrow=classic;html=1;rounded=0;" parent="1" edge="1">
          <mxGeometry width="50" height="50" relative="1" as="geometry">
            <mxPoint x="449" y="140" as="sourcePoint" />
            <mxPoint x="550" y="140" as="targetPoint" />
          </mxGeometry>
        </mxCell>
        <mxCell id="whWWv7yojBycynxsl9pJ-34" value="" style="outlineConnect=0;dashed=0;verticalLabelPosition=bottom;verticalAlign=top;align=center;html=1;shape=mxgraph.aws3.sensor;fillColor=#5294CF;gradientColor=none;" parent="1" vertex="1">
          <mxGeometry x="160" y="359.88" width="70" height="80.12" as="geometry" />
        </mxCell>
        <mxCell id="whWWv7yojBycynxsl9pJ-35" value="" style="shape=flexArrow;endArrow=classic;startArrow=classic;html=1;rounded=0;fillColor=#a20025;strokeColor=#6F0000;exitX=0.37;exitY=0.005;exitDx=0;exitDy=0;exitPerimeter=0;" parent="1" source="whWWv7yojBycynxsl9pJ-34" edge="1">
          <mxGeometry width="100" height="100" relative="1" as="geometry">
            <mxPoint x="186" y="350" as="sourcePoint" />
            <mxPoint x="185.5" y="283.51" as="targetPoint" />
          </mxGeometry>
        </mxCell>
        <mxCell id="whWWv7yojBycynxsl9pJ-36" value="Port Mirroring (Observability)" style="text;html=1;align=center;verticalAlign=middle;whiteSpace=wrap;rounded=0;" parent="1" vertex="1">
          <mxGeometry x="116" y="440" width="204" height="30" as="geometry" />
        </mxCell>
        <mxCell id="whWWv7yojBycynxsl9pJ-37" value="&lt;b&gt;192.168.178.1&lt;/b&gt;" style="text;html=1;align=center;verticalAlign=middle;whiteSpace=wrap;rounded=0;" parent="1" vertex="1">
          <mxGeometry x="200" y="310" width="90" height="30" as="geometry" />
        </mxCell>
        <mxCell id="whWWv7yojBycynxsl9pJ-38" value="DIO" style="text;html=1;align=center;verticalAlign=middle;whiteSpace=wrap;rounded=0;" parent="1" vertex="1">
          <mxGeometry x="669.5" y="106" width="60" height="30" as="geometry" />
        </mxCell>
        <mxCell id="whWWv7yojBycynxsl9pJ-39" value="DIO" style="text;html=1;align=center;verticalAlign=middle;whiteSpace=wrap;rounded=0;" parent="1" vertex="1">
          <mxGeometry x="470" y="106" width="60" height="30" as="geometry" />
        </mxCell>
        <mxCell id="7bxZp-YgXL_PnSAD53AF-1" value="" style="endArrow=classic;startArrow=classic;html=1;rounded=0;" edge="1" parent="1">
          <mxGeometry width="50" height="50" relative="1" as="geometry">
            <mxPoint x="640" y="138.63" as="sourcePoint" />
            <mxPoint x="741" y="138.63" as="targetPoint" />
          </mxGeometry>
        </mxCell>
      </root>
    </mxGraphModel>
  </diagram>
  <diagram id="h6iKeAPyAte0xQiYSMc2" name="Page-2">
    <mxGraphModel dx="872" dy="437" grid="1" gridSize="10" guides="1" tooltips="1" connect="1" arrows="1" fold="1" page="1" pageScale="1" pageWidth="850" pageHeight="1100" math="0" shadow="0">
      <root>
        <mxCell id="0" />
        <mxCell id="1" parent="0" />
        <mxCell id="kO8MWBVup3GJZnG3q-rg-3" value="" style="rounded=0;whiteSpace=wrap;html=1;dashed=1;strokeWidth=2;" parent="1" vertex="1">
          <mxGeometry x="130" y="40" width="470" height="240" as="geometry" />
        </mxCell>
        <mxCell id="hmeJTRuOlRsEzyfQqOmH-1" value="v2x(Linux PC)" style="shape=umlLifeline;perimeter=lifelinePerimeter;whiteSpace=wrap;html=1;container=1;dropTarget=0;collapsible=0;recursiveResize=0;outlineConnect=0;portConstraint=eastwest;newEdgeStyle={&quot;edgeStyle&quot;:&quot;elbowEdgeStyle&quot;,&quot;elbow&quot;:&quot;vertical&quot;,&quot;curved&quot;:0,&quot;rounded&quot;:0};" parent="1" vertex="1">
          <mxGeometry x="160" y="80" width="100" height="300" as="geometry" />
        </mxCell>
        <mxCell id="hmeJTRuOlRsEzyfQqOmH-2" value="HPC (Raspberry pi 4)" style="shape=umlLifeline;perimeter=lifelinePerimeter;whiteSpace=wrap;html=1;container=1;dropTarget=0;collapsible=0;recursiveResize=0;outlineConnect=0;portConstraint=eastwest;newEdgeStyle={&quot;edgeStyle&quot;:&quot;elbowEdgeStyle&quot;,&quot;elbow&quot;:&quot;vertical&quot;,&quot;curved&quot;:0,&quot;rounded&quot;:0};" parent="1" vertex="1">
          <mxGeometry x="350" y="80" width="100" height="300" as="geometry" />
        </mxCell>
        <mxCell id="zPbmPsJh4ZdHMvhKZSoq-1" value="" style="endArrow=classic;html=1;rounded=0;" parent="1" target="hmeJTRuOlRsEzyfQqOmH-2" edge="1">
          <mxGeometry width="50" height="50" relative="1" as="geometry">
            <mxPoint x="210" y="170" as="sourcePoint" />
            <mxPoint x="260" y="120" as="targetPoint" />
          </mxGeometry>
        </mxCell>
        <mxCell id="zPbmPsJh4ZdHMvhKZSoq-2" value="DDS RTPS" style="text;html=1;align=center;verticalAlign=middle;whiteSpace=wrap;rounded=0;" parent="1" vertex="1">
          <mxGeometry x="250" y="140" width="110" height="30" as="geometry" />
        </mxCell>
        <mxCell id="zPbmPsJh4ZdHMvhKZSoq-4" value="Zonal (Windows)" style="shape=umlLifeline;perimeter=lifelinePerimeter;whiteSpace=wrap;html=1;container=1;dropTarget=0;collapsible=0;recursiveResize=0;outlineConnect=0;portConstraint=eastwest;newEdgeStyle={&quot;edgeStyle&quot;:&quot;elbowEdgeStyle&quot;,&quot;elbow&quot;:&quot;vertical&quot;,&quot;curved&quot;:0,&quot;rounded&quot;:0};" parent="1" vertex="1">
          <mxGeometry x="500" y="80" width="100" height="300" as="geometry" />
        </mxCell>
        <mxCell id="zPbmPsJh4ZdHMvhKZSoq-5" value="SubSystem (Pico)" style="shape=umlLifeline;perimeter=lifelinePerimeter;whiteSpace=wrap;html=1;container=1;dropTarget=0;collapsible=0;recursiveResize=0;outlineConnect=0;portConstraint=eastwest;newEdgeStyle={&quot;edgeStyle&quot;:&quot;elbowEdgeStyle&quot;,&quot;elbow&quot;:&quot;vertical&quot;,&quot;curved&quot;:0,&quot;rounded&quot;:0};" parent="1" vertex="1">
          <mxGeometry x="660" y="80" width="100" height="300" as="geometry" />
        </mxCell>
        <mxCell id="zPbmPsJh4ZdHMvhKZSoq-6" value="" style="endArrow=classic;html=1;rounded=0;" parent="1" target="zPbmPsJh4ZdHMvhKZSoq-4" edge="1">
          <mxGeometry width="50" height="50" relative="1" as="geometry">
            <mxPoint x="400" y="220" as="sourcePoint" />
            <mxPoint x="450" y="170" as="targetPoint" />
          </mxGeometry>
        </mxCell>
        <mxCell id="zPbmPsJh4ZdHMvhKZSoq-7" value="SOME I/P - Event" style="text;html=1;align=center;verticalAlign=middle;whiteSpace=wrap;rounded=0;" parent="1" vertex="1">
          <mxGeometry x="425" y="190" width="105" height="30" as="geometry" />
        </mxCell>
        <mxCell id="kO8MWBVup3GJZnG3q-rg-1" value="" style="endArrow=classic;html=1;rounded=0;" parent="1" edge="1">
          <mxGeometry width="50" height="50" relative="1" as="geometry">
            <mxPoint x="399.5" y="300" as="sourcePoint" />
            <mxPoint x="709.5" y="300" as="targetPoint" />
          </mxGeometry>
        </mxCell>
        <mxCell id="kO8MWBVup3GJZnG3q-rg-2" value="DIO" style="text;html=1;align=center;verticalAlign=middle;whiteSpace=wrap;rounded=0;" parent="1" vertex="1">
          <mxGeometry x="600" y="260" width="60" height="30" as="geometry" />
        </mxCell>
        <mxCell id="kO8MWBVup3GJZnG3q-rg-4" value="Ethernet Domain" style="text;html=1;align=center;verticalAlign=middle;whiteSpace=wrap;rounded=0;" parent="1" vertex="1">
          <mxGeometry x="130" y="40" width="110" height="30" as="geometry" />
        </mxCell>
        <mxCell id="kO8MWBVup3GJZnG3q-rg-5" value="" style="outlineConnect=0;dashed=0;verticalLabelPosition=bottom;verticalAlign=top;align=center;html=1;shape=mxgraph.aws3.sensor;fillColor=#5294CF;gradientColor=none;" parent="1" vertex="1">
          <mxGeometry x="10" y="120" width="76.5" height="90" as="geometry" />
        </mxCell>
        <mxCell id="kO8MWBVup3GJZnG3q-rg-6" value="" style="endArrow=classic;startArrow=classic;html=1;rounded=0;" parent="1" edge="1">
          <mxGeometry width="50" height="50" relative="1" as="geometry">
            <mxPoint x="86.5" y="160" as="sourcePoint" />
            <mxPoint x="120" y="160" as="targetPoint" />
          </mxGeometry>
        </mxCell>
      </root>
    </mxGraphModel>
  </diagram>
</mxfile>
